<svg width="920" height="920" viewBox="0 0 920 920" fill="none" xmlns="http://www.w3.org/2000/svg">
<path fill-rule="evenodd" clip-rule="evenodd" d="M665.272 101.214C665.134 100.312 665.016 99.4063 664.918 98.4984C662.962 78.8687 661.902 59.1983 661.74 39.4871C661.77 35.9319 661.77 32.3753 661.74 28.8174C661.711 32.3753 661.711 35.9319 661.74 39.4871C661.579 59.1983 660.52 78.8687 658.565 98.4984C658.464 99.4063 658.347 100.312 658.209 101.214C658.071 102.119 657.916 103.017 657.74 103.914C657.564 104.81 657.369 105.703 657.158 106.59C656.944 107.479 656.711 108.362 656.461 109.24C656.21 110.118 655.941 110.989 655.654 111.858C655.366 112.724 655.062 113.585 654.736 114.438C654.413 115.293 654.073 116.138 653.711 116.978C653.352 117.818 652.976 118.65 652.58 119.473C652.185 120.295 651.773 121.111 651.343 121.916C650.916 122.724 650.469 123.52 650.006 124.307C649.543 125.094 649.064 125.871 648.567 126.637C648.071 127.405 647.56 128.162 647.033 128.907C646.505 129.652 645.96 130.386 645.402 131.107C644.842 131.829 644.269 132.541 643.681 133.239C643.091 133.937 642.487 134.621 641.871 135.295C641.252 135.966 640.621 136.626 639.974 137.271C639.329 137.916 638.671 138.55 637.997 139.166C637.324 139.785 636.639 140.388 635.941 140.976C635.243 141.567 634.534 142.14 633.811 142.698C633.089 143.258 632.355 143.8 631.61 144.328C630.864 144.856 630.108 145.368 629.342 145.864C628.574 146.36 627.797 146.84 627.01 147.301C626.223 147.765 625.427 148.211 624.621 148.641C623.815 149.07 623 149.482 622.175 149.878C621.352 150.271 620.52 150.649 619.682 151.009C618.842 151.368 617.995 151.71 617.142 152.034C616.287 152.357 615.426 152.664 614.56 152.951C613.694 153.239 612.822 153.507 611.942 153.757C611.065 154.009 610.182 154.241 609.294 154.453C608.405 154.667 607.513 154.862 606.618 155.036C605.721 155.212 604.821 155.369 603.919 155.507C603.017 155.643 602.111 155.762 601.203 155.86C581.573 157.817 561.903 158.876 542.191 159.038C538.636 159.009 535.08 159.009 531.522 159.038C535.08 159.067 538.636 159.067 542.191 159.038C561.903 159.2 581.573 160.259 601.203 162.214C602.111 162.314 603.017 162.431 603.919 162.569C604.821 162.705 605.721 162.862 606.618 163.038C607.515 163.214 608.405 163.407 609.294 163.621C610.182 163.835 611.065 164.065 611.942 164.317C612.822 164.567 613.694 164.837 614.56 165.125C615.428 165.412 616.289 165.717 617.142 166.042C617.995 166.365 618.842 166.706 619.682 167.067C620.522 167.426 621.352 167.803 622.177 168.198C623 168.594 623.815 169.006 624.621 169.435C625.427 169.865 626.223 170.309 627.012 170.772C627.798 171.236 628.576 171.716 629.342 172.212C630.11 172.707 630.864 173.22 631.61 173.748C632.355 174.275 633.089 174.818 633.811 175.376C634.534 175.936 635.243 176.509 635.941 177.099C636.641 177.688 637.326 178.291 637.997 178.909C638.671 179.528 639.329 180.16 639.976 180.805C640.621 181.45 641.252 182.11 641.871 182.781C642.489 183.455 643.093 184.139 643.681 184.837C644.269 185.535 644.844 186.246 645.402 186.969C645.962 187.691 646.505 188.425 647.033 189.171C647.56 189.916 648.073 190.67 648.568 191.438C649.064 192.204 649.543 192.982 650.006 193.771C650.469 194.557 650.916 195.354 651.345 196.159C651.774 196.965 652.187 197.78 652.58 198.603C652.976 199.428 653.352 200.258 653.713 201.098C654.073 201.938 654.413 202.785 654.738 203.638C655.062 204.493 655.366 205.354 655.654 206.22C655.941 207.086 656.212 207.96 656.461 208.838C656.711 209.715 656.944 210.599 657.158 211.488C657.369 212.375 657.564 213.268 657.74 214.164C657.916 215.059 658.071 215.959 658.209 216.861C658.347 217.765 658.464 218.67 658.565 219.577C660.52 239.207 661.579 258.879 661.74 278.59C661.711 282.146 661.711 285.702 661.74 289.26C661.77 285.702 661.77 282.146 661.74 278.59C661.902 258.879 662.962 239.207 664.918 219.577C665.016 218.67 665.134 217.765 665.272 216.861C665.41 215.959 665.567 215.061 665.741 214.164C665.917 213.268 666.112 212.375 666.325 211.488C666.537 210.599 666.77 209.715 667.02 208.838C667.271 207.96 667.54 207.086 667.827 206.22C668.115 205.354 668.421 204.493 668.744 203.638C669.068 202.785 669.41 201.938 669.77 201.098C670.129 200.26 670.507 199.428 670.901 198.605C671.296 197.78 671.708 196.965 672.138 196.159C672.567 195.354 673.014 194.557 673.475 193.771C673.938 192.984 674.419 192.206 674.914 191.438C675.41 190.672 675.923 189.916 676.45 189.171C676.978 188.425 677.521 187.691 678.081 186.969C678.639 186.246 679.212 185.537 679.802 184.839C680.39 184.141 680.994 183.455 681.612 182.783C682.231 182.11 682.862 181.452 683.507 180.805C684.152 180.16 684.812 179.528 685.484 178.909C686.157 178.293 686.842 177.689 687.54 177.099C688.238 176.511 688.949 175.936 689.671 175.378C690.394 174.818 691.128 174.275 691.873 173.748C692.618 173.22 693.373 172.707 694.141 172.212C694.907 171.716 695.684 171.238 696.471 170.774C697.26 170.311 698.056 169.865 698.862 169.435C699.668 169.006 700.483 168.594 701.306 168.2C702.13 167.805 702.961 167.426 703.801 167.067C704.64 166.708 705.488 166.365 706.341 166.042C707.194 165.719 708.054 165.412 708.923 165.125C709.789 164.837 710.661 164.569 711.54 164.319C712.418 164.067 713.301 163.837 714.188 163.623C715.077 163.409 715.968 163.214 716.865 163.04C717.761 162.864 718.662 162.707 719.564 162.571C720.466 162.433 721.372 162.314 722.28 162.216C737.568 160.693 752.881 159.714 768.218 159.278C768.065 159.991 767.889 160.699 767.689 161.401C767.435 162.292 767.144 163.168 766.817 164.032C766.488 164.896 766.124 165.746 765.725 166.58C765.324 167.414 764.891 168.229 764.422 169.027C763.953 169.824 763.452 170.599 762.917 171.354C762.383 172.109 761.818 172.841 761.22 173.546C760.624 174.253 760 174.934 759.346 175.587C758.691 176.241 758.012 176.867 757.305 177.463C756.597 178.059 755.867 178.625 755.112 179.16C754.358 179.693 753.582 180.195 752.784 180.664C751.988 181.133 751.173 181.568 750.338 181.967C749.504 182.366 748.655 182.731 747.791 183.058C746.926 183.385 746.049 183.677 745.16 183.93C744.271 184.185 743.372 184.401 742.464 184.577C741.556 184.755 740.643 184.895 739.724 184.995C729.776 185.985 719.804 186.521 709.813 186.601C708.031 186.587 706.247 186.587 704.463 186.601C706.247 186.615 708.031 186.616 709.813 186.601C719.804 186.683 729.776 187.218 739.724 188.209C740.643 188.309 741.556 188.449 742.464 188.627C743.372 188.802 744.271 189.018 745.16 189.273C746.049 189.527 746.926 189.816 747.791 190.145C748.655 190.473 749.504 190.838 750.338 191.237C751.173 191.636 751.988 192.071 752.784 192.54C753.582 193.009 754.358 193.51 755.112 194.044C755.867 194.579 756.597 195.145 757.305 195.74C758.012 196.336 758.691 196.962 759.346 197.617C760 198.269 760.624 198.95 761.22 199.658C761.818 200.363 762.383 201.095 762.917 201.85C763.452 202.604 763.953 203.38 764.422 204.176C764.891 204.974 765.324 205.79 765.725 206.624C766.124 207.458 766.488 208.307 766.817 209.172C767.144 210.036 767.435 210.912 767.689 211.802C767.942 212.691 768.158 213.59 768.336 214.496C768.513 215.404 768.653 216.317 768.754 217.237C769.744 227.172 770.28 237.128 770.361 247.104C770.347 248.902 770.347 250.7 770.361 252.499C770.376 250.7 770.376 248.902 770.361 247.104C770.443 237.128 770.979 227.172 771.969 217.237C772.069 216.317 772.207 215.404 772.385 214.496C772.563 213.59 772.779 212.691 773.032 211.802C773.286 210.912 773.577 210.036 773.904 209.172C774.233 208.307 774.596 207.458 774.997 206.624C775.396 205.79 775.831 204.974 776.299 204.176C776.768 203.38 777.269 202.604 777.804 201.85C778.339 201.095 778.905 200.365 779.501 199.658C780.097 198.95 780.723 198.271 781.375 197.617C782.03 196.962 782.711 196.338 783.416 195.74C784.124 195.145 784.854 194.579 785.608 194.046C786.363 193.51 787.138 193.009 787.937 192.54C788.733 192.071 789.548 191.636 790.382 191.237C791.216 190.838 792.066 190.473 792.93 190.145C793.794 189.818 794.672 189.527 795.561 189.273C796.45 189.02 797.348 188.804 798.256 188.627C799.164 188.449 800.078 188.309 800.997 188.209C810.947 187.218 820.917 186.683 830.908 186.601C832.69 186.616 834.474 186.615 836.257 186.601C834.474 186.587 832.69 186.587 830.908 186.601C820.917 186.521 810.947 185.985 800.997 184.995C800.078 184.895 799.164 184.755 798.256 184.577C797.348 184.399 796.45 184.184 795.561 183.93C794.672 183.677 793.794 183.385 792.93 183.058C792.066 182.731 791.216 182.366 790.382 181.967C789.548 181.568 788.733 181.133 787.937 180.664C787.138 180.195 786.363 179.693 785.608 179.158C784.854 178.625 784.124 178.059 783.416 177.463C782.711 176.866 782.03 176.241 781.375 175.587C780.723 174.933 780.097 174.253 779.501 173.546C778.905 172.839 778.339 172.109 777.804 171.354C777.269 170.599 776.768 169.824 776.299 169.027C775.831 168.229 775.396 167.414 774.997 166.58C774.596 165.746 774.233 164.896 773.904 164.032C773.577 163.168 773.286 162.292 773.032 161.401C772.822 160.664 772.638 159.921 772.48 159.171C775.416 159.107 778.353 159.063 781.292 159.039C784.847 159.068 788.403 159.067 791.961 159.038C788.403 159.009 784.847 159.009 781.292 159.039C778.335 159.015 775.38 158.97 772.425 158.906C772.411 158.839 772.398 158.772 772.385 158.706C772.207 157.8 772.069 156.886 771.969 155.967C770.981 146.045 770.448 136.101 770.368 126.137C770.383 124.327 770.383 122.516 770.369 120.705C770.353 122.516 770.353 124.327 770.368 126.137C770.283 136.101 769.744 146.045 768.754 155.967C768.653 156.886 768.513 157.8 768.336 158.708L768.317 158.803C752.946 158.37 737.601 157.389 722.28 155.862C721.372 155.764 720.466 155.645 719.564 155.507C718.662 155.37 717.761 155.213 716.865 155.038C715.968 154.863 715.077 154.669 714.188 154.455C713.301 154.241 712.418 154.01 711.538 153.759C710.661 153.509 709.789 153.241 708.923 152.953C708.054 152.666 707.194 152.359 706.341 152.036C705.486 151.712 704.64 151.37 703.801 151.011C702.961 150.651 702.13 150.273 701.306 149.878C700.483 149.484 699.668 149.072 698.862 148.643C698.056 148.213 697.258 147.767 696.471 147.303C695.684 146.84 694.907 146.361 694.141 145.866C693.373 145.37 692.616 144.858 691.871 144.33C691.126 143.802 690.392 143.259 689.671 142.7C688.949 142.142 688.238 141.567 687.54 140.978C686.842 140.388 686.157 139.785 685.484 139.168C684.812 138.55 684.152 137.918 683.507 137.273C682.86 136.626 682.229 135.968 681.612 135.295C680.994 134.623 680.39 133.937 679.802 133.239C679.212 132.541 678.639 131.831 678.079 131.109C677.521 130.386 676.978 129.652 676.45 128.907C675.921 128.162 675.41 127.405 674.914 126.639C674.419 125.871 673.938 125.094 673.475 124.307C673.014 123.52 672.567 122.724 672.138 121.918C671.708 121.113 671.296 120.297 670.901 119.473C670.505 118.65 670.129 117.818 669.77 116.98C669.41 116.14 669.068 115.293 668.744 114.439C668.419 113.585 668.115 112.724 667.827 111.858C667.54 110.991 667.271 110.118 667.02 109.24C666.77 108.362 666.537 107.479 666.323 106.59C666.112 105.703 665.917 104.81 665.741 103.914C665.565 103.017 665.41 102.119 665.272 101.214ZM153.333 230C153.333 208.829 170.496 191.667 191.667 191.667H585.567C606.738 191.667 623.9 208.829 623.9 230V326.856H153.333L153.333 230ZM153.333 360.653H623.9V834.495C623.9 849.231 607.963 858.455 595.185 851.113L426.812 754.37C403.162 740.781 374.072 740.781 350.422 754.37L182.049 851.113C169.271 858.455 153.333 849.231 153.333 834.495L153.333 360.653ZM741.822 84.9266C741.712 84.3724 741.627 83.8144 741.567 83.2527C740.96 77.1625 740.633 71.0601 740.585 64.9441C740.593 63.8687 740.593 62.7929 740.585 61.7166C740.576 62.7929 740.576 63.8687 740.585 64.9441C740.535 71.0601 740.206 77.1625 739.598 83.2527C739.535 83.8144 739.45 84.3724 739.342 84.9247C739.235 85.4789 739.102 86.0274 738.947 86.5703C738.792 87.1131 738.616 87.6484 738.416 88.1761C738.215 88.7038 737.994 89.2221 737.75 89.7328C737.506 90.2416 737.239 90.739 736.953 91.2251C736.668 91.7112 736.361 92.186 736.036 92.6456C735.709 93.1071 735.365 93.5535 735 93.9847C734.636 94.416 734.254 94.8321 733.855 95.2312C733.456 95.6303 733.042 96.0124 732.611 96.3755C732.179 96.7406 731.733 97.0848 731.272 97.412C730.812 97.7374 730.337 98.0438 729.851 98.3294C729.365 98.6169 728.867 98.8817 728.359 99.1257C727.85 99.3697 727.332 99.5929 726.804 99.7934C726.276 99.992 725.741 100.17 725.198 100.325C724.655 100.48 724.107 100.612 723.553 100.72C722.998 100.83 722.44 100.915 721.88 100.976C715.809 101.58 709.724 101.907 703.628 101.957C702.536 101.948 701.443 101.948 700.35 101.957C701.443 101.966 702.536 101.966 703.628 101.957C709.724 102.007 715.809 102.334 721.88 102.939C722.44 102.999 722.998 103.084 723.553 103.192C724.107 103.302 724.655 103.433 725.198 103.588C725.741 103.743 726.276 103.921 726.804 104.121C727.332 104.322 727.852 104.543 728.361 104.787C728.869 105.031 729.367 105.297 729.853 105.583C730.341 105.869 730.814 106.175 731.275 106.502C731.735 106.828 732.181 107.174 732.613 107.537C733.046 107.902 733.46 108.284 733.859 108.683C734.258 109.082 734.64 109.496 735.005 109.93C735.368 110.361 735.715 110.807 736.04 111.267C736.367 111.728 736.674 112.201 736.959 112.689C737.245 113.175 737.51 113.673 737.754 114.182C737.997 114.692 738.221 115.211 738.421 115.738C738.622 116.266 738.798 116.801 738.953 117.344C739.108 117.887 739.24 118.435 739.348 118.99C739.458 119.544 739.541 120.102 739.603 120.664C740.208 126.733 740.535 132.816 740.585 138.912C740.576 140.005 740.576 141.098 740.585 142.192C740.594 141.098 740.594 140.005 740.585 138.912C740.635 132.816 740.962 126.733 741.567 120.664C741.627 120.102 741.712 119.544 741.822 118.99C741.93 118.435 742.062 117.887 742.215 117.344C742.371 116.801 742.548 116.266 742.749 115.738C742.949 115.211 743.171 114.692 743.415 114.182C743.659 113.673 743.925 113.175 744.211 112.689C744.497 112.201 744.803 111.728 745.13 111.267C745.455 110.807 745.802 110.361 746.165 109.93C746.53 109.496 746.91 109.082 747.309 108.683C747.71 108.284 748.124 107.902 748.556 107.537C748.987 107.174 749.433 106.828 749.895 106.502C750.356 106.175 750.829 105.869 751.315 105.583C751.803 105.297 752.301 105.031 752.809 104.787C753.318 104.543 753.836 104.322 754.364 104.121C754.892 103.921 755.429 103.743 755.972 103.588C756.515 103.433 757.063 103.302 757.617 103.192C758.172 103.084 758.728 102.999 759.29 102.939C765.361 102.334 771.446 102.007 777.542 101.957C778.634 101.966 779.727 101.966 780.82 101.957C779.727 101.948 778.634 101.948 777.542 101.957C771.446 101.907 765.361 101.58 759.29 100.976C758.728 100.915 758.172 100.83 757.617 100.722C757.063 100.612 756.515 100.482 755.972 100.327C755.429 100.172 754.894 99.9939 754.364 99.7934C753.836 99.5929 753.318 99.3716 752.809 99.1276C752.301 98.8836 751.803 98.6188 751.315 98.3313C750.829 98.0457 750.356 97.7393 749.895 97.4139C749.433 97.0867 748.989 96.7406 748.556 96.3774C748.124 96.0143 747.71 95.6322 747.311 95.2331C746.91 94.834 746.53 94.4179 746.165 93.9866C745.802 93.5554 745.455 93.109 745.13 92.6475C744.803 92.1879 744.497 91.7131 744.211 91.227C743.925 90.7409 743.659 90.2416 743.415 89.7328C743.171 89.224 742.949 88.7057 742.749 88.178C742.548 87.6503 742.371 87.115 742.215 86.5722C742.062 86.0274 741.93 85.4789 741.822 84.9266Z" fill="url(#paint0_linear_423_15)"/>
<defs>
<linearGradient id="paint0_linear_423_15" x1="-90.5682" y1="-55.9643" x2="916.868" y2="1103.32" gradientUnits="userSpaceOnUse">
<stop/>
<stop offset="1" stop-color="#E056FD"/>
</linearGradient>
</defs>
</svg>
