<svg xmlns="http://www.w3.org/2000/svg" xmlns:xlink="http://www.w3.org/1999/xlink" width="40" zoomAndPan="magnify" viewBox="0 0 30 30.000001" height="40" preserveAspectRatio="xMidYMid meet" version="1.0"><defs><clipPath id="0390a206bd"><path d="M 4.558594 0 L 25.441406 0 L 25.441406 29.03125 L 4.558594 29.03125 Z M 4.558594 0 " clip-rule="nonzero"/></clipPath></defs><g clip-path="url(#0390a206bd)"><path fill="#fffefe" d="M 25.4375 14.777344 C 25.4375 18.902344 25.460938 23.03125 25.410156 27.15625 C 25.402344 27.730469 25.191406 28.5 24.789062 28.828125 C 24.148438 29.355469 23.53125 28.730469 23 28.304688 C 20.648438 26.425781 18.273438 24.566406 15.957031 22.640625 C 15.320312 22.105469 14.929688 22.046875 14.253906 22.601562 C 11.808594 24.597656 9.316406 26.542969 6.796875 28.441406 C 6.375 28.753906 5.617188 28.972656 5.1875 28.800781 C 4.84375 28.664062 4.585938 27.871094 4.585938 27.367188 C 4.550781 18.96875 4.554688 10.570312 4.5625 2.171875 C 4.566406 0.628906 5.179688 0.0117188 6.710938 0.0078125 C 12.238281 -0.00390625 17.761719 -0.00390625 23.289062 0.0078125 C 24.816406 0.0078125 25.421875 0.628906 25.425781 2.179688 C 25.4375 6.378906 25.429688 10.578125 25.429688 14.777344 C 25.433594 14.777344 25.433594 14.777344 25.4375 14.777344 " fill-opacity="1" fill-rule="nonzero"/></g><path stroke-linecap="butt" transform="matrix(0.100496, 0, 0, 0.100496, 4.548387, 5.326305)" fill="none" stroke-linejoin="miter" d="M -0.0150411 2.000462 L 208.015047 2.000462 " stroke="#000000" stroke-width="4" stroke-opacity="1" stroke-miterlimit="4"/></svg>